<?xml version="1.0" encoding="utf-8"?>
<!-- Generator: Adobe Illustrator 23.0.2, SVG Export Plug-In . SVG Version: 6.00 Build 0)  -->
<svg version="1.1" id="Layer_1" xmlns="http://www.w3.org/2000/svg" x="0px" y="0px"
     viewBox="0 0 169.9872 302.8862" enable-background="new 0 0 169.9872 302.8862" xml:space="preserve">
<g>
	<rect x="81.8932" y="233" width="19.9191" height="17.5"/>
	<path d="M7.7167,293.0625h10.2919c-0.1227-0.8314-0.2072-1.6749-0.2072-2.5398v-69.7739
		c-0.0371,0.0005-0.0752,0.0005-0.1123,0.0005c-6.8701,0.001-12.5684-5.376-12.9697-12.2402
		c-2.6259-44.8935,0.7419-73.5809,10.2807-87.4221V15h99.8204v85.4528l4.1294-4.3358c0.1816-0.1899,0.3574-0.3506,0.5176-0.4854
		l8.0197-8.3361V79.5h8v4.6905c1.3281,0.2961,2.5566,0.9439,3.5584,1.9074c0.1558,0.1498,0.3007,0.3077,0.4416,0.4682V79.5h8v8
		h-7.3054c0.7268,1.1455,1.1365,2.4668,1.1636,3.8577c0.0009,0.0478-0.0042,0.0947-0.0042,0.1423h6.1459v8h-8v-3.0667
		c-0.0793,0.0906-0.1534,0.1846-0.2375,0.272l-3.707,3.853c1.8145,2.0185,3.4343,4.4837,3.9445,7.0367V103.5h8v8h-8v-0.6755
		c-0.2697,1.2143-0.8474,2.3181-1.7101,3.2236l-2.2899,2.4044V123.5h-6.7119l-13.9548,14.6526v62.514H81.8932V230h22.9189v23.5
		H81.8932v32.8654h63.1279v6.6971h17.25v-6.6971h7.716V0H0v286.3654h7.7167V293.0625z M139.4872,115.5h8v8h-8V115.5z
		 M127.4872,147.4375h32v28.5h-32V147.4375z M159.4872,87.5h-8v-8h8V87.5z M159.4872,91.5v8h-8v-8H159.4872z M159.4872,103.5v8h-8
		v-8H159.4872z M159.4872,115.5v8h-8v-8H159.4872z M127.4872,54h32v7h-32V54z"/>
	<rect x="131.9872" y="152.5625" width="6.5" height="18.25"/>
	<rect x="20.8417" y="56.4166" width="88.562" height="3"/>
	<path d="M34.9123,51.0546v-19.267c0-2.4749-1.2856-4.6051-3.0961-5.4895v-3.4647h-4.9537v3.4647
		c-1.8104,0.8844-3.0961,3.0146-3.0961,5.4895v19.267C23.7664,54.3151,34.9123,54.3151,34.9123,51.0546z"/>
	<path d="M52.804,51.0546v-19.267c0-2.4749-1.2856-4.6051-3.0961-5.4895v-3.4647h-4.9537v3.4647
		c-1.8104,0.8844-3.0961,3.0146-3.0961,5.4895v19.267C41.6581,54.3151,52.804,54.3151,52.804,51.0546z"/>
	<path d="M70.6956,51.0546v-19.267c0-2.4749-1.2856-4.6051-3.0961-5.4895v-3.4647h-4.9537v3.4647
		c-1.8104,0.8844-3.0961,3.0146-3.0961,5.4895v19.267C59.5497,54.3151,70.6956,54.3151,70.6956,51.0546z"/>
	<path d="M88.5873,51.0546v-19.267c0-2.4749-1.2856-4.6051-3.0961-5.4895v-3.4647h-4.9537v3.4647
		c-1.8104,0.8844-3.096,3.0146-3.096,5.4895v19.267C77.4415,54.3151,88.5873,54.3151,88.5873,51.0546z"/>
	<path d="M106.4789,51.0546v-19.267c0-2.4749-1.2856-4.6051-3.0961-5.4895v-3.4647h-4.9537v3.4647
		c-1.8104,0.8844-3.0961,3.0146-3.0961,5.4896v19.267C95.3331,54.3151,106.4789,54.3151,106.4789,51.0546z"/>
	<path d="M72.3176,104.0278h37.0861v-3H74.1635C73.6118,102.0696,72.9938,103.0703,72.3176,104.0278z"/>
	<path d="M80.5375,67.4444v3.4648c-1.8104,0.8844-3.096,3.0145-3.096,5.4894v19.267c0,3.2606,11.1458,3.2606,11.1458,0v-19.267
		c0-2.4749-1.2856-4.6051-3.0961-5.4894v-3.4648H80.5375z"/>
	<path d="M98.4292,67.4444v3.4647c-1.8104,0.8843-3.0961,3.0146-3.0961,5.4895v19.267c0,3.2606,11.1458,3.2606,11.1458,0v-19.267
		c0-2.4749-1.2856-4.6051-3.0961-5.4894v-3.4648H98.4292z"/>
	<path d="M101.696,146.0823c-1.128,0-2.2445-0.1547-3.3315-0.4434H81.8932v3h27.5104v-3h-4.4191
		C103.9163,145.92,102.8139,146.0823,101.696,146.0823z"/>
	<rect x="81.8932" y="190.25" width="27.5104" height="3"/>
	<path d="M81.8932,156.6666v30.6208c3.105,0.2498,6.694-0.5492,6.694-2.3996v-19.267c0-2.4749-1.2856-4.6051-3.0961-5.4894v-3.4648
		H81.8932z"/>
	<path d="M98.4292,156.6666v3.4647c-1.8104,0.8843-3.0961,3.0146-3.0961,5.4895v19.267c0,3.2606,11.1458,3.2606,11.1458,0v-19.267
		c0-2.4749-1.2856-4.6051-3.0961-5.4894v-3.4648H98.4292z"/>
	<circle cx="49.8474" cy="88.2036" r="22.5"/>
	<path d="M76.8932,192.5229v-18.9395V134.142c6.2412,1.6202,14.8599,4.1557,22.3633,6.5589
		c0.8018,0.2568,1.624,0.3813,2.4395,0.3813c2.1553,0,4.2598-0.8716,5.7939-2.4829l26.667-28
		c1.9058-2.0009-1.9121-7.0671-5.7856-9.7986l7.2769-7.5642c0.9575-0.9947,0.9263-2.5775-0.0684-3.5348
		c-0.9961-0.9577-2.5767-0.9255-3.5352,0.0687l-9.2139,9.5775c-0.0908,0.0647-0.1797,0.1333-0.2598,0.2172l-23.2256,24.3862
		c-8.8457-2.7502-22.2578-6.6876-28.6953-7.4036c-0.481-0.0938-0.9771-0.1461-1.4854-0.1461H30.53
		c-1.103,0-2.1499,0.2347-3.0991,0.6508c-1.7954,0.6249-4.0259,1.8627-6.2788,4.2938
		c-10.3125,11.1284-14.1621,40.3555-11.4414,86.8701c0.249,4.252,3.7744,7.5332,7.9785,7.5327c0.1572,0,0.3164-0.0044,0.4746-0.0137
		c1.7725-0.1036,3.3696-0.7833,4.6377-1.8374v76.6247c0,6.8301,5.5371,12.3633,12.3633,12.3633
		c6.8281,0,12.3652-5.5332,12.3652-12.3633v-90.2715h4.6348v90.2715c0,6.8301,5.5371,12.3633,12.3628,12.3633
		c6.8286,0,12.3657-5.5332,12.3657-12.3633V192.5229z"/>
</g>
</svg>
